<svg xmlns="http://www.w3.org/2000/svg" viewBox="0 0 64 64" width="64" height="64">
  <defs>
    <linearGradient id="g" x1="0" x2="1" y1="0" y2="1">
      <stop offset="0%" stop-color="#6366f1" />
      <stop offset="100%" stop-color="#22d3ee" />
    </linearGradient>
  </defs>
  <rect x="2" y="2" width="60" height="60" rx="14" fill="url(#g)" />
  <g fill="#fff" opacity="0.95" transform="translate(8, 8)">
    <path d="M20 8h8a12 12 0 0 1 12 12v8a12 12 0 0 1-12 12h-8A12 12 0 0 1 8 28v-8A12 12 0 0 1 20 8zm0 6a6 6 0 0 0-6 6v8a6 6 0 0 0 6 6h8a6 6 0 0 0 6-6v-8a6 6 0 0 0-6-6h-8z" />
  </g>
</svg>


